<mxfile host="app.diagrams.net" agent="Mozilla/5.0 (X11; Linux x86_64; rv:134.0) Gecko/20100101 Firefox/134.0" version="26.0.5">
  <diagram name="Страница-1" id="hfI7l834m9IzSOkMLOht">
    <mxGraphModel dx="3665" dy="2023" grid="1" gridSize="16" guides="1" tooltips="1" connect="1" arrows="1" fold="1" page="1" pageScale="1" pageWidth="850" pageHeight="1100" math="0" shadow="0">
      <root>
        <mxCell id="0" />
        <mxCell id="1" parent="0" />
        <UserObject label="&lt;div style=&quot;font-size: 1px&quot;&gt;&lt;font style=&quot;font-size:16.93px;font-family:Arial;color:#000000;direction:ltr;letter-spacing:0px;line-height:120%;opacity:1&quot;&gt;Лит&lt;br/&gt;&lt;/font&gt;&lt;/div&gt;" tags="Background" id="srDaBskKyKmV22WjLrVP-1">
          <mxCell style="verticalAlign=middle;align=center;overflow=width;vsdxID=69;fillColor=none;gradientColor=none;shape=stencil(nZBLDoAgDERP0z3SIyjew0SURgSD+Lu9kMZoXLhwN9O+tukAlrNpJg1SzDH4QW/URgNYgZTkjA4UkwJUgGXng+6DX1zLfmoymdXo17xh5zmRJ6Q42BWCfc2oJfdAr+Yv+AP9Cb7OJ3H/2JG1HNGz/84klThPVCc=);strokeColor=none;points=[];labelBackgroundColor=none;rounded=0;html=1;whiteSpace=wrap;" vertex="1" parent="1">
            <mxGeometry x="2632" y="2216" width="40" height="19" as="geometry" />
          </mxCell>
        </UserObject>
        <UserObject label="&lt;div style=&quot;font-size: 1px&quot;&gt;&lt;font style=&quot;font-size:16.93px;font-family:Arial;color:#000000;direction:ltr;letter-spacing:0px;line-height:120%;opacity:1&quot;&gt;№ Докум.&lt;br/&gt;&lt;/font&gt;&lt;/div&gt;" tags="Background" id="srDaBskKyKmV22WjLrVP-2">
          <mxCell style="verticalAlign=middle;align=center;overflow=width;vsdxID=70;fillColor=none;gradientColor=none;shape=stencil(nZBLDoAgDERP0z3SIyjew0SURgSD+Lu9kMZoXLhwN9O+tukAlrNpJg1SzDH4QW/URgNYgZTkjA4UkwJUgGXng+6DX1zLfmoymdXo17xh5zmRJ6Q42BWCfc2oJfdAr+Yv+AP9Cb7OJ3H/2JG1HNGz/84klThPVCc=);strokeColor=none;points=[];labelBackgroundColor=none;rounded=0;html=1;whiteSpace=wrap;" vertex="1" parent="1">
            <mxGeometry x="2670" y="2216" width="92" height="19" as="geometry" />
          </mxCell>
        </UserObject>
        <UserObject label="&lt;div style=&quot;font-size: 1px&quot;&gt;&lt;font style=&quot;font-size:16.93px;font-family:Arial;color:#000000;direction:ltr;letter-spacing:0px;line-height:120%;opacity:1&quot;&gt;Подп.&lt;br/&gt;&lt;/font&gt;&lt;/div&gt;" tags="Background" id="srDaBskKyKmV22WjLrVP-3">
          <mxCell style="verticalAlign=middle;align=center;overflow=width;vsdxID=71;fillColor=none;gradientColor=none;shape=stencil(nZBLDoAgDERP0z3SIyjew0SURgSD+Lu9kMZoXLhwN9O+tukAlrNpJg1SzDH4QW/URgNYgZTkjA4UkwJUgGXng+6DX1zLfmoymdXo17xh5zmRJ6Q42BWCfc2oJfdAr+Yv+AP9Cb7OJ3H/2JG1HNGz/84klThPVCc=);strokeColor=none;points=[];labelBackgroundColor=none;rounded=0;html=1;whiteSpace=wrap;" vertex="1" parent="1">
            <mxGeometry x="2762" y="2216" width="58" height="19" as="geometry" />
          </mxCell>
        </UserObject>
        <UserObject label="&lt;div style=&quot;font-size: 1px&quot;&gt;&lt;font style=&quot;font-size:16.93px;font-family:Arial;color:#000000;direction:ltr;letter-spacing:0px;line-height:120%;opacity:1&quot;&gt;Дата&lt;br/&gt;&lt;/font&gt;&lt;/div&gt;" tags="Background" id="srDaBskKyKmV22WjLrVP-4">
          <mxCell style="verticalAlign=middle;align=center;overflow=width;vsdxID=72;fillColor=none;gradientColor=none;shape=stencil(nZBLDoAgDERP0z3SIyjew0SURgSD+Lu9kMZoXLhwN9O+tukAlrNpJg1SzDH4QW/URgNYgZTkjA4UkwJUgGXng+6DX1zLfmoymdXo17xh5zmRJ6Q42BWCfc2oJfdAr+Yv+AP9Cb7OJ3H/2JG1HNGz/84klThPVCc=);strokeColor=none;points=[];labelBackgroundColor=none;rounded=0;html=1;whiteSpace=wrap;" vertex="1" parent="1">
            <mxGeometry x="2812" y="2216" width="58" height="19" as="geometry" />
          </mxCell>
        </UserObject>
        <UserObject label="&lt;div style=&quot;font-size: 1px&quot;&gt;&lt;p style=&quot;text-align:left;margin-left:0;margin-right:0;margin-top:0px;margin-bottom:0px;text-indent:0;vertical-align:middle;direction:ltr;&quot;&gt;&lt;font style=&quot;font-size:16.93px;font-family:Arial;color:#000000;direction:ltr;letter-spacing:0px;line-height:120%;opacity:1&quot;&gt;Разраб.&lt;br/&gt;&lt;/font&gt;&lt;/p&gt;&lt;/div&gt;" tags="Background" id="srDaBskKyKmV22WjLrVP-5">
          <mxCell style="verticalAlign=middle;align=left;overflow=width;vsdxID=73;fillColor=none;gradientColor=none;shape=stencil(nZBLDoAgDERP0z3SIyjew0SURgSD+Lu9kMZoXLhwN9O+tukAlrNpJg1SzDH4QW/URgNYgZTkjA4UkwJUgGXng+6DX1zLfmoymdXo17xh5zmRJ6Q42BWCfc2oJfdAr+Yv+AP9Cb7OJ3H/2JG1HNGz/84klThPVCc=);strokeColor=none;points=[];labelBackgroundColor=none;rounded=0;html=1;whiteSpace=wrap;" vertex="1" parent="1">
            <mxGeometry x="2600" y="2236" width="76" height="19" as="geometry" />
          </mxCell>
        </UserObject>
        <UserObject label="&lt;div style=&quot;font-size: 1px&quot;&gt;&lt;p style=&quot;text-align:left;margin-left:0;margin-right:0;margin-top:0px;margin-bottom:0px;text-indent:0;vertical-align:middle;direction:ltr;&quot;&gt;&lt;font style=&quot;font-size:16.93px;font-family:Arial;color:#000000;direction:ltr;letter-spacing:0px;line-height:120%;opacity:1&quot;&gt;Провер.&lt;br/&gt;&lt;/font&gt;&lt;/p&gt;&lt;/div&gt;" tags="Background" id="srDaBskKyKmV22WjLrVP-6">
          <mxCell style="verticalAlign=middle;align=left;overflow=width;vsdxID=74;fillColor=none;gradientColor=none;shape=stencil(nZBLDoAgDERP0z3SIyjew0SURgSD+Lu9kMZoXLhwN9O+tukAlrNpJg1SzDH4QW/URgNYgZTkjA4UkwJUgGXng+6DX1zLfmoymdXo17xh5zmRJ6Q42BWCfc2oJfdAr+Yv+AP9Cb7OJ3H/2JG1HNGz/84klThPVCc=);strokeColor=none;points=[];labelBackgroundColor=none;rounded=0;html=1;whiteSpace=wrap;" vertex="1" parent="1">
            <mxGeometry x="2598" y="2256" width="76" height="19" as="geometry" />
          </mxCell>
        </UserObject>
        <UserObject label="&lt;div style=&quot;font-size: 1px&quot;&gt;&lt;p style=&quot;text-align:left;margin-left:0;margin-right:0;margin-top:0px;margin-bottom:0px;text-indent:0;vertical-align:middle;direction:ltr;&quot;&gt;&lt;font style=&quot;font-size:16.93px;font-family:Arial;color:#000000;direction:ltr;letter-spacing:0px;line-height:120%;opacity:1&quot;&gt;Т.контр.&lt;br/&gt;&lt;/font&gt;&lt;/p&gt;&lt;/div&gt;" tags="Background" id="srDaBskKyKmV22WjLrVP-7">
          <mxCell style="verticalAlign=middle;align=left;overflow=width;vsdxID=75;fillColor=none;gradientColor=none;shape=stencil(nZBLDoAgDERP0z3SIyjew0SURgSD+Lu9kMZoXLhwN9O+tukAlrNpJg1SzDH4QW/URgNYgZTkjA4UkwJUgGXng+6DX1zLfmoymdXo17xh5zmRJ6Q42BWCfc2oJfdAr+Yv+AP9Cb7OJ3H/2JG1HNGz/84klThPVCc=);strokeColor=none;points=[];labelBackgroundColor=none;rounded=0;html=1;whiteSpace=wrap;" vertex="1" parent="1">
            <mxGeometry x="2598" y="2278" width="76" height="19" as="geometry" />
          </mxCell>
        </UserObject>
        <UserObject label="&lt;div&gt;&lt;p style=&quot;text-align:left;margin-left:0;margin-right:0;margin-top:0px;margin-bottom:0px;text-indent:0;vertical-align:middle;direction:ltr;&quot;&gt;&lt;font style=&quot;font-family: Arial; color: rgb(0, 0, 0); direction: ltr; letter-spacing: 0px; line-height: 120%; opacity: 1; font-size: 16px;&quot;&gt;Файтельсон&lt;br&gt;&lt;/font&gt;&lt;/p&gt;&lt;/div&gt;" tags="Background" id="srDaBskKyKmV22WjLrVP-8">
          <mxCell style="verticalAlign=middle;align=left;overflow=width;vsdxID=76;fillColor=none;gradientColor=none;shape=stencil(nZBLDoAgDERP0z3SIyjew0SURgSD+Lu9kMZoXLhwN9O+tukAlrNpJg1SzDH4QW/URgNYgZTkjA4UkwJUgGXng+6DX1zLfmoymdXo17xh5zmRJ6Q42BWCfc2oJfdAr+Yv+AP9Cb7OJ3H/2JG1HNGz/84klThPVCc=);strokeColor=none;points=[];labelBackgroundColor=none;rounded=0;html=1;whiteSpace=wrap;" vertex="1" parent="1">
            <mxGeometry x="2670" y="2236" width="92" height="19" as="geometry" />
          </mxCell>
        </UserObject>
        <UserObject label="&lt;div style=&quot;font-size: 1px&quot;&gt;&lt;p style=&quot;text-align:left;margin-left:0;margin-right:0;margin-top:0px;margin-bottom:0px;text-indent:0;vertical-align:middle;direction:ltr;&quot;&gt;&lt;font style=&quot;font-size: 16.93px; font-family: Arial; color: rgb(0, 0, 0); direction: ltr; letter-spacing: 0px; line-height: 120%; opacity: 1;&quot;&gt;Ураева&lt;br&gt;&lt;/font&gt;&lt;/p&gt;&lt;/div&gt;" tags="Background" id="srDaBskKyKmV22WjLrVP-9">
          <mxCell style="verticalAlign=middle;align=left;overflow=width;vsdxID=77;fillColor=none;gradientColor=none;shape=stencil(nZBLDoAgDERP0z3SIyjew0SURgSD+Lu9kMZoXLhwN9O+tukAlrNpJg1SzDH4QW/URgNYgZTkjA4UkwJUgGXng+6DX1zLfmoymdXo17xh5zmRJ6Q42BWCfc2oJfdAr+Yv+AP9Cb7OJ3H/2JG1HNGz/84klThPVCc=);strokeColor=none;points=[];labelBackgroundColor=none;rounded=0;html=1;whiteSpace=wrap;" vertex="1" parent="1">
            <mxGeometry x="2670" y="2256" width="92" height="19" as="geometry" />
          </mxCell>
        </UserObject>
        <UserObject label="&lt;div style=&quot;font-size: 1px&quot;&gt;&lt;p style=&quot;text-align:left;margin-left:0;margin-right:0;margin-top:0px;margin-bottom:0px;text-indent:0;vertical-align:middle;direction:ltr;&quot;&gt;&lt;font style=&quot;font-size: 16.93px; font-family: Arial; color: rgb(0, 0, 0); direction: ltr; letter-spacing: 0px; line-height: 120%; opacity: 1;&quot;&gt;Ураева&lt;br&gt;&lt;/font&gt;&lt;/p&gt;&lt;/div&gt;" tags="Background" id="srDaBskKyKmV22WjLrVP-10">
          <mxCell style="verticalAlign=middle;align=left;overflow=width;vsdxID=78;fillColor=none;gradientColor=none;shape=stencil(nZBLDoAgDERP0z3SIyjew0SURgSD+Lu9kMZoXLhwN9O+tukAlrNpJg1SzDH4QW/URgNYgZTkjA4UkwJUgGXng+6DX1zLfmoymdXo17xh5zmRJ6Q42BWCfc2oJfdAr+Yv+AP9Cb7OJ3H/2JG1HNGz/84klThPVCc=);strokeColor=none;points=[];labelBackgroundColor=none;rounded=0;html=1;whiteSpace=wrap;" vertex="1" parent="1">
            <mxGeometry x="2670" y="2276" width="92" height="19" as="geometry" />
          </mxCell>
        </UserObject>
        <UserObject label="&lt;div style=&quot;font-size: 1px&quot;&gt;&lt;p style=&quot;text-align:left;margin-left:0;margin-right:0;margin-top:0px;margin-bottom:0px;text-indent:0;vertical-align:middle;direction:ltr;&quot;&gt;&lt;font style=&quot;font-size:16.93px;font-family:Arial;color:#000000;direction:ltr;letter-spacing:0px;line-height:120%;opacity:1&quot;&gt;Утв.&lt;br/&gt;&lt;/font&gt;&lt;/p&gt;&lt;/div&gt;" tags="Background" id="srDaBskKyKmV22WjLrVP-11">
          <mxCell style="verticalAlign=middle;align=left;overflow=width;vsdxID=79;fillColor=none;gradientColor=none;shape=stencil(nZBLDoAgDERP0z3SIyjew0SURgSD+Lu9kMZoXLhwN9O+tukAlrNpJg1SzDH4QW/URgNYgZTkjA4UkwJUgGXng+6DX1zLfmoymdXo17xh5zmRJ6Q42BWCfc2oJfdAr+Yv+AP9Cb7OJ3H/2JG1HNGz/84klThPVCc=);strokeColor=none;points=[];labelBackgroundColor=none;rounded=0;html=1;whiteSpace=wrap;" vertex="1" parent="1">
            <mxGeometry x="2601" y="2336" width="68" height="19" as="geometry" />
          </mxCell>
        </UserObject>
        <UserObject label="&lt;div style=&quot;font-size: 1px&quot;&gt;&lt;p style=&quot;text-align:left;margin-left:0;margin-right:0;margin-top:0px;margin-bottom:0px;text-indent:0;vertical-align:middle;direction:ltr;&quot;&gt;&lt;font style=&quot;font-size: 16.93px; font-family: Arial; color: rgb(0, 0, 0); direction: ltr; letter-spacing: 0px; line-height: 120%; opacity: 1;&quot;&gt;Макаров&lt;br&gt;&lt;/font&gt;&lt;/p&gt;&lt;/div&gt;" tags="Background" id="srDaBskKyKmV22WjLrVP-12">
          <mxCell style="verticalAlign=middle;align=left;overflow=width;vsdxID=80;fillColor=none;gradientColor=none;shape=stencil(nZBLDoAgDERP0z3SIyjew0SURgSD+Lu9kMZoXLhwN9O+tukAlrNpJg1SzDH4QW/URgNYgZTkjA4UkwJUgGXng+6DX1zLfmoymdXo17xh5zmRJ6Q42BWCfc2oJfdAr+Yv+AP9Cb7OJ3H/2JG1HNGz/84klThPVCc=);strokeColor=none;points=[];labelBackgroundColor=none;rounded=0;html=1;whiteSpace=wrap;" vertex="1" parent="1">
            <mxGeometry x="2670" y="2336" width="92" height="19" as="geometry" />
          </mxCell>
        </UserObject>
        <UserObject label="&lt;div style=&quot;font-size: 1px&quot;&gt;&lt;font style=&quot;font-size: 31.04px; font-family: Arial; color: rgb(0, 0, 0); direction: ltr; letter-spacing: 0px; line-height: 120%; opacity: 1;&quot;&gt;Диаграмма классов&lt;br&gt;&lt;/font&gt;&lt;/div&gt;" tags="Background" id="srDaBskKyKmV22WjLrVP-13">
          <mxCell style="verticalAlign=middle;align=center;overflow=width;vsdxID=81;fillColor=none;gradientColor=none;shape=stencil(nZBLDoAgDERP0z3SIyjew0SURgSD+Lu9kMZoXLhwN9O+tukAlrNpJg1SzDH4QW/URgNYgZTkjA4UkwJUgGXng+6DX1zLfmoymdXo17xh5zmRJ6Q42BWCfc2oJfdAr+Yv+AP9Cb7OJ3H/2JG1HNGz/84klThPVCc=);strokeColor=none;points=[];labelBackgroundColor=none;rounded=0;html=1;whiteSpace=wrap;" vertex="1" parent="1">
            <mxGeometry x="2860" y="2196" width="302" height="100" as="geometry" />
          </mxCell>
        </UserObject>
        <UserObject label="&lt;div style=&quot;font-size: 1px&quot;&gt;&lt;font style=&quot;font-size:25.4px;font-family:Arial;color:#000000;direction:ltr;letter-spacing:0px;line-height:120%;opacity:1&quot;&gt;Курсовой проект&lt;br/&gt;&lt;/font&gt;&lt;/div&gt;" tags="Background" id="srDaBskKyKmV22WjLrVP-14">
          <mxCell style="verticalAlign=middle;align=center;overflow=width;vsdxID=84;fillColor=none;gradientColor=none;shape=stencil(nZBLDoAgDERP0z3SIyjew0SURgSD+Lu9kMZoXLhwN9O+tukAlrNpJg1SzDH4QW/URgNYgZTkjA4UkwJUgGXng+6DX1zLfmoymdXo17xh5zmRJ6Q42BWCfc2oJfdAr+Yv+AP9Cb7OJ3H/2JG1HNGz/84klThPVCc=);strokeColor=none;points=[];labelBackgroundColor=none;rounded=0;html=1;whiteSpace=wrap;" vertex="1" parent="1">
            <mxGeometry x="2862" y="2296" width="300" height="59" as="geometry" />
          </mxCell>
        </UserObject>
        <UserObject label="&lt;div style=&quot;font-size: 1px&quot;&gt;&lt;font style=&quot;font-size:19.76px;font-family:Arial;color:#000000;direction:ltr;letter-spacing:0px;line-height:120%;opacity:1&quot;&gt;КГУ МОИАИС-213&lt;br/&gt;&lt;/font&gt;&lt;/div&gt;" tags="Background" id="srDaBskKyKmV22WjLrVP-15">
          <mxCell style="verticalAlign=middle;align=center;overflow=width;vsdxID=87;fillColor=none;gradientColor=none;shape=stencil(nZBLDoAgDERP0z3SIyjew0SURgSD+Lu9kMZoXLhwN9O+tukAlrNpJg1SzDH4QW/URgNYgZTkjA4UkwJUgGXng+6DX1zLfmoymdXo17xh5zmRJ6Q42BWCfc2oJfdAr+Yv+AP9Cb7OJ3H/2JG1HNGz/84klThPVCc=);strokeColor=none;points=[];labelBackgroundColor=none;rounded=0;html=1;whiteSpace=wrap;" vertex="1" parent="1">
            <mxGeometry x="3161" y="2296" width="182" height="60" as="geometry" />
          </mxCell>
        </UserObject>
        <UserObject label="&lt;div style=&quot;font-size: 1px&quot;&gt;&lt;font style=&quot;font-size:15.52px;font-family:Arial;color:#000000;direction:ltr;letter-spacing:0px;line-height:120%;opacity:1&quot;&gt;Литера&lt;br/&gt;&lt;/font&gt;&lt;/div&gt;" tags="Background" id="srDaBskKyKmV22WjLrVP-17">
          <mxCell style="verticalAlign=middle;align=center;overflow=width;vsdxID=92;fillColor=none;gradientColor=none;shape=stencil(nZBLDoAgDERP0z3SIyjew0SURgSD+Lu9kMZoXLhwN9O+tukAlrNpJg1SzDH4QW/URgNYgZTkjA4UkwJUgGXng+6DX1zLfmoymdXo17xh5zmRJ6Q42BWCfc2oJfdAr+Yv+AP9Cb7OJ3H/2JG1HNGz/84klThPVCc=);strokeColor=none;points=[];labelBackgroundColor=none;rounded=0;html=1;whiteSpace=wrap;" vertex="1" parent="1">
            <mxGeometry x="3157" y="2196" width="68" height="18" as="geometry" />
          </mxCell>
        </UserObject>
        <UserObject label="&lt;div style=&quot;font-size: 1px&quot;&gt;&lt;font style=&quot;font-size:15.52px;font-family:Arial;color:#000000;direction:ltr;letter-spacing:0px;line-height:120%;opacity:1&quot;&gt;Масса&lt;br/&gt;&lt;/font&gt;&lt;/div&gt;" tags="Background" id="srDaBskKyKmV22WjLrVP-18">
          <mxCell style="verticalAlign=middle;align=center;overflow=width;vsdxID=93;fillColor=none;gradientColor=none;shape=stencil(nZBLDoAgDERP0z3SIyjew0SURgSD+Lu9kMZoXLhwN9O+tukAlrNpJg1SzDH4QW/URgNYgZTkjA4UkwJUgGXng+6DX1zLfmoymdXo17xh5zmRJ6Q42BWCfc2oJfdAr+Yv+AP9Cb7OJ3H/2JG1HNGz/84klThPVCc=);strokeColor=none;points=[];labelBackgroundColor=none;rounded=0;html=1;whiteSpace=wrap;" vertex="1" parent="1">
            <mxGeometry x="3217" y="2196" width="64" height="17" as="geometry" />
          </mxCell>
        </UserObject>
        <UserObject label="&lt;div style=&quot;font-size: 1px&quot;&gt;&lt;font style=&quot;font-size:14.11px;font-family:Arial;color:#000000;direction:ltr;letter-spacing:0px;line-height:120%;opacity:1&quot;&gt;Масштаб&lt;br/&gt;&lt;/font&gt;&lt;/div&gt;" tags="Background" id="srDaBskKyKmV22WjLrVP-19">
          <mxCell style="verticalAlign=middle;align=center;overflow=width;vsdxID=95;fillColor=none;gradientColor=none;shape=stencil(nZBLDoAgDERP0z3SIyjew0SURgSD+Lu9kMZoXLhwN9O+tukAlrNpJg1SzDH4QW/URgNYgZTkjA4UkwJUgGXng+6DX1zLfmoymdXo17xh5zmRJ6Q42BWCfc2oJfdAr+Yv+AP9Cb7OJ3H/2JG1HNGz/84klThPVCc=);strokeColor=none;points=[];labelBackgroundColor=none;rounded=0;html=1;whiteSpace=wrap;" vertex="1" parent="1">
            <mxGeometry x="3273" y="2197" width="73" height="17" as="geometry" />
          </mxCell>
        </UserObject>
        <UserObject label="&lt;div style=&quot;font-size: 1px&quot;&gt;&lt;font style=&quot;font-size:16.93px;font-family:Arial;color:#000000;direction:ltr;letter-spacing:0px;line-height:120%;opacity:1&quot;&gt;К&lt;br/&gt;&lt;/font&gt;&lt;/div&gt;" tags="Background" id="srDaBskKyKmV22WjLrVP-20">
          <mxCell style="verticalAlign=middle;align=center;overflow=width;vsdxID=96;fillColor=none;gradientColor=none;shape=stencil(nZBLDoAgDERP0z3SIyjew0SURgSD+Lu9kMZoXLhwN9O+tukAlrNpJg1SzDH4QW/URgNYgZTkjA4UkwJUgGXng+6DX1zLfmoymdXo17xh5zmRJ6Q42BWCfc2oJfdAr+Yv+AP9Cb7OJ3H/2JG1HNGz/84klThPVCc=);strokeColor=none;points=[];labelBackgroundColor=none;rounded=0;html=1;whiteSpace=wrap;" vertex="1" parent="1">
            <mxGeometry x="3162" y="2214" width="20" height="61" as="geometry" />
          </mxCell>
        </UserObject>
        <UserObject label="&lt;div style=&quot;font-size: 1px&quot;&gt;&lt;p style=&quot;text-align:center;margin-left:0;margin-right:0;margin-top:0px;margin-bottom:0px;text-indent:0;vertical-align:middle;direction:ltr;&quot;&gt;&lt;font style=&quot;font-size: 39.51px; font-family: Arial; color: rgb(0, 0, 0); direction: ltr; letter-spacing: 0px; line-height: 120%; opacity: 1;&quot;&gt;КГУ.КП.020303.213.&lt;/font&gt;&lt;font style=&quot;font-size: 39.51px; font-family: Arial; color: rgb(0, 0, 0); direction: ltr; letter-spacing: 0px; line-height: 120%; opacity: 1;&quot;&gt;25&lt;/font&gt;&lt;font style=&quot;font-size: 39.51px; font-family: Arial; color: rgb(0, 0, 0); direction: ltr; letter-spacing: 0px; line-height: 120%; opacity: 1;&quot;&gt;.30&lt;br&gt;&lt;/font&gt;&lt;/p&gt;&lt;/div&gt;" tags="Background" id="srDaBskKyKmV22WjLrVP-21">
          <mxCell style="verticalAlign=middle;align=center;overflow=width;vsdxID=98;fillColor=none;gradientColor=none;shape=stencil(nZBLDoAgDERP0z3SIyjew0SURgSD+Lu9kMZoXLhwN9O+tukAlrNpJg1SzDH4QW/URgNYgZTkjA4UkwJUgGXng+6DX1zLfmoymdXo17xh5zmRJ6Q42BWCfc2oJfdAr+Yv+AP9Cb7OJ3H/2JG1HNGz/84klThPVCc=);strokeColor=none;points=[];labelBackgroundColor=none;rounded=0;html=1;whiteSpace=wrap;" vertex="1" parent="1">
            <mxGeometry x="2864" y="2136" width="479" height="60" as="geometry" />
          </mxCell>
        </UserObject>
        <UserObject label="&lt;div style=&quot;font-size: 1px&quot;&gt;&lt;font style=&quot;font-size: 22.58px; font-family: Arial; color: rgb(0, 0, 0); direction: ltr; letter-spacing: 0px; line-height: 120%; opacity: 1;&quot;&gt;КГУ.КП.020303.213.25.30&lt;br&gt;&lt;/font&gt;&lt;/div&gt;" tags="Background" id="srDaBskKyKmV22WjLrVP-22">
          <mxCell style="verticalAlign=middle;align=center;overflow=width;vsdxID=99;rotation=180;fillColor=none;gradientColor=none;shape=stencil(nZBLDoAgDERP0z3SIyjew0SURgSD+Lu9kMZoXLhwN9O+tukAlrNpJg1SzDH4QW/URgNYgZTkjA4UkwJUgGXng+6DX1zLfmoymdXo17xh5zmRJ6Q42BWCfc2oJfdAr+Yv+AP9Cb7OJ3H/2JG1HNGz/84klThPVCc=);strokeColor=none;points=[];labelBackgroundColor=none;rounded=0;html=1;whiteSpace=wrap;" vertex="1" parent="1">
            <mxGeometry x="80" y="20" width="280" height="56" as="geometry" />
          </mxCell>
        </UserObject>
        <UserObject label="&lt;div style=&quot;font-size: 1px&quot;&gt;&lt;font style=&quot;font-size:16.23px;font-family:Arial;color:#000000;direction:ltr;letter-spacing:0px;line-height:120%;opacity:1&quot;&gt;Изм&lt;br/&gt;&lt;/font&gt;&lt;/div&gt;" tags="Background" id="srDaBskKyKmV22WjLrVP-23">
          <mxCell style="verticalAlign=middle;align=center;overflow=width;vsdxID=100;fillColor=none;gradientColor=none;shape=stencil(nZBLDoAgDERP0z3SIyjew0SURgSD+Lu9kMZoXLhwN9O+tukAlrNpJg1SzDH4QW/URgNYgZTkjA4UkwJUgGXng+6DX1zLfmoymdXo17xh5zmRJ6Q42BWCfc2oJfdAr+Yv+AP9Cb7OJ3H/2JG1HNGz/84klThPVCc=);strokeColor=none;points=[];labelBackgroundColor=none;rounded=0;html=1;whiteSpace=wrap;" vertex="1" parent="1">
            <mxGeometry x="2595" y="2216" width="46" height="19" as="geometry" />
          </mxCell>
        </UserObject>
        <UserObject label="" tags="Соединительная_линия" id="srDaBskKyKmV22WjLrVP-24">
          <mxCell style="vsdxID=2;edgeStyle=none;startArrow=none;endArrow=none;startSize=9;endSize=9;strokeWidth=6;spacingTop=0;spacingBottom=0;spacingLeft=0;spacingRight=0;verticalAlign=middle;html=1;labelBackgroundColor=#ffffff;rounded=0;" edge="1" parent="1">
            <mxGeometry relative="1" as="geometry">
              <mxPoint as="offset" />
              <Array as="points" />
              <mxPoint x="80" y="2356" as="sourcePoint" />
              <mxPoint x="3344" y="2356" as="targetPoint" />
            </mxGeometry>
          </mxCell>
        </UserObject>
        <UserObject label="" tags="Соединительная_линия" id="srDaBskKyKmV22WjLrVP-25">
          <mxCell style="vsdxID=3;edgeStyle=none;startArrow=none;endArrow=none;startSize=9;endSize=9;strokeWidth=6;spacingTop=0;spacingBottom=0;spacingLeft=0;spacingRight=0;verticalAlign=middle;html=1;labelBackgroundColor=#ffffff;rounded=0;" edge="1" parent="1">
            <mxGeometry relative="1" as="geometry">
              <mxPoint x="10" as="offset" />
              <Array as="points" />
              <mxPoint x="3344" y="20" as="sourcePoint" />
              <mxPoint x="3344" y="2356" as="targetPoint" />
            </mxGeometry>
          </mxCell>
        </UserObject>
        <UserObject label="" tags="Соединительная_линия" id="srDaBskKyKmV22WjLrVP-26">
          <mxCell style="vsdxID=4;edgeStyle=none;startArrow=none;endArrow=none;startSize=9;endSize=9;strokeWidth=6;spacingTop=0;spacingBottom=0;spacingLeft=0;spacingRight=0;verticalAlign=middle;html=1;labelBackgroundColor=#ffffff;rounded=0;" edge="1" parent="1">
            <mxGeometry relative="1" as="geometry">
              <mxPoint as="offset" />
              <Array as="points" />
              <mxPoint x="80" y="20" as="sourcePoint" />
              <mxPoint x="3344" y="20" as="targetPoint" />
            </mxGeometry>
          </mxCell>
        </UserObject>
        <UserObject label="" tags="Соединительная_линия" id="srDaBskKyKmV22WjLrVP-27">
          <mxCell style="vsdxID=5;edgeStyle=none;startArrow=none;endArrow=none;startSize=9;endSize=9;strokeWidth=6;spacingTop=0;spacingBottom=0;spacingLeft=0;spacingRight=0;verticalAlign=middle;html=1;labelBackgroundColor=#ffffff;rounded=0;" edge="1" parent="1">
            <mxGeometry relative="1" as="geometry">
              <mxPoint x="10" as="offset" />
              <Array as="points" />
              <mxPoint x="80" y="2356" as="sourcePoint" />
              <mxPoint x="80" y="20" as="targetPoint" />
            </mxGeometry>
          </mxCell>
        </UserObject>
        <UserObject label="" tags="Соединительная_линия" id="srDaBskKyKmV22WjLrVP-28">
          <mxCell style="vsdxID=6;edgeStyle=none;startArrow=none;endArrow=none;startSize=9;endSize=9;strokeWidth=6;spacingTop=0;spacingBottom=0;spacingLeft=0;spacingRight=0;verticalAlign=middle;html=1;labelBackgroundColor=#ffffff;rounded=0;" edge="1" parent="1">
            <mxGeometry relative="1" as="geometry">
              <mxPoint as="offset" />
              <Array as="points" />
              <mxPoint x="360" y="76" as="sourcePoint" />
              <mxPoint x="80" y="76" as="targetPoint" />
            </mxGeometry>
          </mxCell>
        </UserObject>
        <UserObject label="" tags="Соединительная_линия" id="srDaBskKyKmV22WjLrVP-29">
          <mxCell style="vsdxID=7;edgeStyle=none;startArrow=none;endArrow=none;startSize=9;endSize=9;strokeWidth=6;spacingTop=0;spacingBottom=0;spacingLeft=0;spacingRight=0;verticalAlign=middle;html=1;labelBackgroundColor=#ffffff;rounded=0;" edge="1" parent="1">
            <mxGeometry relative="1" as="geometry">
              <mxPoint x="10" as="offset" />
              <Array as="points" />
              <mxPoint x="360" y="76" as="sourcePoint" />
              <mxPoint x="360" y="20" as="targetPoint" />
            </mxGeometry>
          </mxCell>
        </UserObject>
        <UserObject label="" tags="Соединительная_линия" id="srDaBskKyKmV22WjLrVP-30">
          <mxCell style="vsdxID=8;edgeStyle=none;startArrow=none;endArrow=none;startSize=9;endSize=9;strokeWidth=6;spacingTop=0;spacingBottom=0;spacingLeft=0;spacingRight=0;verticalAlign=middle;html=1;labelBackgroundColor=#ffffff;rounded=0;" edge="1" parent="1">
            <mxGeometry relative="1" as="geometry">
              <mxPoint x="10" y="-1" as="offset" />
              <Array as="points" />
              <mxPoint x="2600" y="2136" as="sourcePoint" />
              <mxPoint x="2600" y="2356" as="targetPoint" />
            </mxGeometry>
          </mxCell>
        </UserObject>
        <UserObject label="" tags="Соединительная_линия" id="srDaBskKyKmV22WjLrVP-31">
          <mxCell style="vsdxID=9;edgeStyle=none;startArrow=none;endArrow=none;startSize=9;endSize=9;strokeWidth=6;spacingTop=0;spacingBottom=0;spacingLeft=0;spacingRight=0;verticalAlign=middle;html=1;labelBackgroundColor=#ffffff;rounded=0;" edge="1" parent="1">
            <mxGeometry relative="1" as="geometry">
              <mxPoint as="offset" />
              <Array as="points" />
              <mxPoint x="2600" y="2136" as="sourcePoint" />
              <mxPoint x="3344" y="2136" as="targetPoint" />
            </mxGeometry>
          </mxCell>
        </UserObject>
        <UserObject label="" tags="Соединительная_линия" id="srDaBskKyKmV22WjLrVP-32">
          <mxCell style="vsdxID=11;edgeStyle=none;startArrow=none;endArrow=none;startSize=9;endSize=9;strokeWidth=3;spacingTop=0;spacingBottom=0;spacingLeft=0;spacingRight=0;verticalAlign=middle;html=1;labelBackgroundColor=#ffffff;rounded=0;" edge="1" parent="1">
            <mxGeometry relative="1" as="geometry">
              <mxPoint x="10" as="offset" />
              <Array as="points" />
              <mxPoint x="2862" y="2355" as="sourcePoint" />
              <mxPoint x="2862" y="2138" as="targetPoint" />
            </mxGeometry>
          </mxCell>
        </UserObject>
        <UserObject label="" tags="Соединительная_линия" id="srDaBskKyKmV22WjLrVP-33">
          <mxCell style="vsdxID=14;edgeStyle=none;startArrow=none;endArrow=none;startSize=9;endSize=9;strokeWidth=3;spacingTop=0;spacingBottom=0;spacingLeft=0;spacingRight=0;verticalAlign=middle;html=1;labelBackgroundColor=#ffffff;rounded=0;" edge="1" parent="1">
            <mxGeometry relative="1" as="geometry">
              <mxPoint x="10" y="-1" as="offset" />
              <Array as="points" />
              <mxPoint x="2820" y="2354" as="sourcePoint" />
              <mxPoint x="2820" y="2136" as="targetPoint" />
            </mxGeometry>
          </mxCell>
        </UserObject>
        <UserObject label="" tags="Соединительная_линия" id="srDaBskKyKmV22WjLrVP-34">
          <mxCell style="vsdxID=15;edgeStyle=none;startArrow=none;endArrow=none;startSize=9;endSize=9;strokeWidth=3;spacingTop=0;spacingBottom=0;spacingLeft=0;spacingRight=0;verticalAlign=middle;html=1;labelBackgroundColor=#ffffff;rounded=0;" edge="1" parent="1">
            <mxGeometry relative="1" as="geometry">
              <mxPoint x="10" y="-1" as="offset" />
              <Array as="points" />
              <mxPoint x="2762" y="2354" as="sourcePoint" />
              <mxPoint x="2762" y="2136" as="targetPoint" />
            </mxGeometry>
          </mxCell>
        </UserObject>
        <UserObject label="" tags="Соединительная_линия" id="srDaBskKyKmV22WjLrVP-35">
          <mxCell style="vsdxID=16;edgeStyle=none;startArrow=none;endArrow=none;startSize=9;endSize=9;strokeWidth=3;spacingTop=0;spacingBottom=0;spacingLeft=0;spacingRight=0;verticalAlign=middle;html=1;labelBackgroundColor=#ffffff;rounded=0;" edge="1" parent="1">
            <mxGeometry relative="1" as="geometry">
              <mxPoint x="10" y="-1" as="offset" />
              <Array as="points" />
              <mxPoint x="2670" y="2354" as="sourcePoint" />
              <mxPoint x="2670" y="2136" as="targetPoint" />
            </mxGeometry>
          </mxCell>
        </UserObject>
        <UserObject label="" tags="Соединительная_линия" id="srDaBskKyKmV22WjLrVP-36">
          <mxCell style="vsdxID=17;edgeStyle=none;startArrow=none;endArrow=none;startSize=9;endSize=9;strokeWidth=3;spacingTop=0;spacingBottom=0;spacingLeft=0;spacingRight=0;verticalAlign=middle;html=1;labelBackgroundColor=#ffffff;rounded=0;" edge="1" parent="1">
            <mxGeometry relative="1" as="geometry">
              <mxPoint x="10" as="offset" />
              <Array as="points" />
              <mxPoint x="2634" y="2235" as="sourcePoint" />
              <mxPoint x="2634" y="2136" as="targetPoint" />
            </mxGeometry>
          </mxCell>
        </UserObject>
        <UserObject label="" tags="Соединительная_линия" id="srDaBskKyKmV22WjLrVP-37">
          <mxCell style="vsdxID=18;edgeStyle=none;startArrow=none;endArrow=none;startSize=9;endSize=9;strokeWidth=3;spacingTop=0;spacingBottom=0;spacingLeft=0;spacingRight=0;verticalAlign=middle;html=1;labelBackgroundColor=#ffffff;rounded=0;" edge="1" parent="1">
            <mxGeometry relative="1" as="geometry">
              <mxPoint as="offset" />
              <Array as="points" />
              <mxPoint x="3343" y="2196" as="sourcePoint" />
              <mxPoint x="2862" y="2196" as="targetPoint" />
            </mxGeometry>
          </mxCell>
        </UserObject>
        <UserObject label="" tags="Соединительная_линия" id="srDaBskKyKmV22WjLrVP-38">
          <mxCell style="vsdxID=19;edgeStyle=none;startArrow=none;endArrow=none;startSize=9;endSize=9;strokeWidth=3;spacingTop=0;spacingBottom=0;spacingLeft=0;spacingRight=0;verticalAlign=middle;html=1;labelBackgroundColor=#ffffff;rounded=0;" edge="1" parent="1">
            <mxGeometry relative="1" as="geometry">
              <mxPoint as="offset" />
              <Array as="points" />
              <mxPoint x="3343" y="2296" as="sourcePoint" />
              <mxPoint x="2862" y="2296" as="targetPoint" />
            </mxGeometry>
          </mxCell>
        </UserObject>
        <UserObject label="" tags="Соединительная_линия" id="srDaBskKyKmV22WjLrVP-39">
          <mxCell style="vsdxID=20;edgeStyle=none;startArrow=none;endArrow=none;startSize=9;endSize=9;strokeWidth=3;spacingTop=0;spacingBottom=0;spacingLeft=0;spacingRight=0;verticalAlign=middle;html=1;labelBackgroundColor=#ffffff;rounded=0;" edge="1" parent="1">
            <mxGeometry relative="1" as="geometry">
              <mxPoint x="10" as="offset" />
              <Array as="points" />
              <mxPoint x="3162" y="2355" as="sourcePoint" />
              <mxPoint x="3162" y="2196" as="targetPoint" />
            </mxGeometry>
          </mxCell>
        </UserObject>
        <UserObject label="" tags="Соединительная_линия" id="srDaBskKyKmV22WjLrVP-40">
          <mxCell style="vsdxID=22;edgeStyle=none;startArrow=none;endArrow=none;startSize=9;endSize=9;strokeWidth=3;spacingTop=0;spacingBottom=0;spacingLeft=0;spacingRight=0;verticalAlign=middle;html=1;labelBackgroundColor=#ffffff;rounded=0;" edge="1" parent="1">
            <mxGeometry relative="1" as="geometry">
              <mxPoint x="-1" as="offset" />
              <Array as="points" />
              <mxPoint x="3342" y="2214" as="sourcePoint" />
              <mxPoint x="3162" y="2214" as="targetPoint" />
            </mxGeometry>
          </mxCell>
        </UserObject>
        <UserObject label="" tags="Соединительная_линия" id="srDaBskKyKmV22WjLrVP-41">
          <mxCell style="vsdxID=23;edgeStyle=none;startArrow=none;endArrow=none;startSize=9;endSize=9;strokeWidth=3;spacingTop=0;spacingBottom=0;spacingLeft=0;spacingRight=0;verticalAlign=middle;html=1;labelBackgroundColor=#ffffff;rounded=0;" edge="1" parent="1">
            <mxGeometry relative="1" as="geometry">
              <mxPoint as="offset" />
              <Array as="points" />
              <mxPoint x="3343" y="2278" as="sourcePoint" />
              <mxPoint x="3162" y="2278" as="targetPoint" />
            </mxGeometry>
          </mxCell>
        </UserObject>
        <UserObject label="" tags="Соединительная_линия" id="srDaBskKyKmV22WjLrVP-42">
          <mxCell style="vsdxID=24;edgeStyle=none;startArrow=none;endArrow=none;startSize=9;endSize=9;strokeWidth=3;spacingTop=0;spacingBottom=0;spacingLeft=0;spacingRight=0;verticalAlign=middle;html=1;labelBackgroundColor=#ffffff;rounded=0;" edge="1" parent="1">
            <mxGeometry relative="1" as="geometry">
              <mxPoint x="-10" y="-1" as="offset" />
              <Array as="points" />
              <mxPoint x="3222" y="2196" as="sourcePoint" />
              <mxPoint x="3222" y="2275" as="targetPoint" />
            </mxGeometry>
          </mxCell>
        </UserObject>
        <UserObject label="" tags="Соединительная_линия" id="srDaBskKyKmV22WjLrVP-43">
          <mxCell style="vsdxID=25;edgeStyle=none;startArrow=none;endArrow=none;startSize=9;endSize=9;strokeWidth=3;spacingTop=0;spacingBottom=0;spacingLeft=0;spacingRight=0;verticalAlign=middle;html=1;labelBackgroundColor=#ffffff;rounded=0;" edge="1" parent="1">
            <mxGeometry relative="1" as="geometry">
              <mxPoint x="10" y="-1" as="offset" />
              <Array as="points" />
              <mxPoint x="3278" y="2196" as="sourcePoint" />
              <mxPoint x="3278" y="2275" as="targetPoint" />
            </mxGeometry>
          </mxCell>
        </UserObject>
        <UserObject label="" tags="Соединительная_линия" id="srDaBskKyKmV22WjLrVP-44">
          <mxCell style="vsdxID=26;edgeStyle=none;startArrow=none;endArrow=none;startSize=9;endSize=9;strokeWidth=3;spacingTop=0;spacingBottom=0;spacingLeft=0;spacingRight=0;verticalAlign=middle;html=1;labelBackgroundColor=#ffffff;rounded=0;" edge="1" parent="1">
            <mxGeometry relative="1" as="geometry">
              <mxPoint x="10" y="-1" as="offset" />
              <Array as="points" />
              <mxPoint x="3182" y="2214" as="sourcePoint" />
              <mxPoint x="3182" y="2275" as="targetPoint" />
            </mxGeometry>
          </mxCell>
        </UserObject>
        <UserObject label="" tags="Соединительная_линия" id="srDaBskKyKmV22WjLrVP-45">
          <mxCell style="vsdxID=27;edgeStyle=none;startArrow=none;endArrow=none;startSize=9;endSize=9;strokeWidth=3;spacingTop=0;spacingBottom=0;spacingLeft=0;spacingRight=0;verticalAlign=middle;html=1;labelBackgroundColor=#ffffff;rounded=0;" edge="1" parent="1">
            <mxGeometry relative="1" as="geometry">
              <mxPoint x="10" y="-1" as="offset" />
              <Array as="points" />
              <mxPoint x="3202" y="2214" as="sourcePoint" />
              <mxPoint x="3202" y="2275" as="targetPoint" />
            </mxGeometry>
          </mxCell>
        </UserObject>
        <UserObject label="" tags="Соединительная_линия" id="srDaBskKyKmV22WjLrVP-46">
          <mxCell style="vsdxID=29;edgeStyle=none;startArrow=none;endArrow=none;startSize=9;endSize=9;spacingTop=0;spacingBottom=0;spacingLeft=0;spacingRight=0;verticalAlign=middle;html=1;labelBackgroundColor=#ffffff;rounded=0;" edge="1" parent="1">
            <mxGeometry relative="1" as="geometry">
              <mxPoint x="-1" as="offset" />
              <Array as="points" />
              <mxPoint x="2600" y="2156" as="sourcePoint" />
              <mxPoint x="2861" y="2156" as="targetPoint" />
            </mxGeometry>
          </mxCell>
        </UserObject>
        <UserObject label="" tags="Соединительная_линия" id="srDaBskKyKmV22WjLrVP-47">
          <mxCell style="vsdxID=30;edgeStyle=none;startArrow=none;endArrow=none;startSize=9;endSize=9;spacingTop=0;spacingBottom=0;spacingLeft=0;spacingRight=0;verticalAlign=middle;html=1;labelBackgroundColor=#ffffff;rounded=0;" edge="1" parent="1">
            <mxGeometry relative="1" as="geometry">
              <mxPoint x="-1" as="offset" />
              <Array as="points" />
              <mxPoint x="2600" y="2196" as="sourcePoint" />
              <mxPoint x="2861" y="2196" as="targetPoint" />
            </mxGeometry>
          </mxCell>
        </UserObject>
        <UserObject label="" tags="Соединительная_линия" id="srDaBskKyKmV22WjLrVP-48">
          <mxCell style="vsdxID=32;edgeStyle=none;startArrow=none;endArrow=none;startSize=9;endSize=9;spacingTop=0;spacingBottom=0;spacingLeft=0;spacingRight=0;verticalAlign=middle;html=1;labelBackgroundColor=#ffffff;rounded=0;" edge="1" parent="1">
            <mxGeometry relative="1" as="geometry">
              <mxPoint x="-1" as="offset" />
              <Array as="points" />
              <mxPoint x="2600" y="2176" as="sourcePoint" />
              <mxPoint x="2861" y="2176" as="targetPoint" />
            </mxGeometry>
          </mxCell>
        </UserObject>
        <UserObject label="" tags="Соединительная_линия" id="srDaBskKyKmV22WjLrVP-49">
          <mxCell style="vsdxID=33;edgeStyle=none;startArrow=none;endArrow=none;startSize=9;endSize=9;strokeWidth=3;spacingTop=0;spacingBottom=0;spacingLeft=0;spacingRight=0;verticalAlign=middle;html=1;labelBackgroundColor=#ffffff;rounded=0;" edge="1" parent="1">
            <mxGeometry relative="1" as="geometry">
              <mxPoint x="-1" as="offset" />
              <Array as="points" />
              <mxPoint x="2600" y="2216" as="sourcePoint" />
              <mxPoint x="2861" y="2216" as="targetPoint" />
            </mxGeometry>
          </mxCell>
        </UserObject>
        <UserObject label="" tags="Соединительная_линия" id="srDaBskKyKmV22WjLrVP-50">
          <mxCell style="vsdxID=61;edgeStyle=none;startArrow=none;endArrow=none;startSize=9;endSize=9;strokeWidth=3;spacingTop=0;spacingBottom=0;spacingLeft=0;spacingRight=0;verticalAlign=middle;html=1;labelBackgroundColor=#ffffff;rounded=0;" edge="1" parent="1">
            <mxGeometry relative="1" as="geometry">
              <mxPoint x="-1" as="offset" />
              <Array as="points" />
              <mxPoint x="2600" y="2236" as="sourcePoint" />
              <mxPoint x="2861" y="2236" as="targetPoint" />
            </mxGeometry>
          </mxCell>
        </UserObject>
        <UserObject label="" tags="Соединительная_линия" id="srDaBskKyKmV22WjLrVP-51">
          <mxCell style="vsdxID=62;edgeStyle=none;startArrow=none;endArrow=none;startSize=9;endSize=9;spacingTop=0;spacingBottom=0;spacingLeft=0;spacingRight=0;verticalAlign=middle;html=1;labelBackgroundColor=#ffffff;rounded=0;" edge="1" parent="1">
            <mxGeometry relative="1" as="geometry">
              <mxPoint x="-1" as="offset" />
              <Array as="points" />
              <mxPoint x="2600" y="2256" as="sourcePoint" />
              <mxPoint x="2861" y="2256" as="targetPoint" />
            </mxGeometry>
          </mxCell>
        </UserObject>
        <UserObject label="" tags="Соединительная_линия" id="srDaBskKyKmV22WjLrVP-52">
          <mxCell style="vsdxID=63;edgeStyle=none;startArrow=none;endArrow=none;startSize=9;endSize=9;spacingTop=0;spacingBottom=0;spacingLeft=0;spacingRight=0;verticalAlign=middle;html=1;labelBackgroundColor=#ffffff;rounded=0;" edge="1" parent="1">
            <mxGeometry relative="1" as="geometry">
              <mxPoint x="-1" as="offset" />
              <Array as="points" />
              <mxPoint x="2600" y="2276" as="sourcePoint" />
              <mxPoint x="2861" y="2276" as="targetPoint" />
            </mxGeometry>
          </mxCell>
        </UserObject>
        <UserObject label="" tags="Соединительная_линия" id="srDaBskKyKmV22WjLrVP-53">
          <mxCell style="vsdxID=64;edgeStyle=none;startArrow=none;endArrow=none;startSize=9;endSize=9;spacingTop=0;spacingBottom=0;spacingLeft=0;spacingRight=0;verticalAlign=middle;html=1;labelBackgroundColor=#ffffff;rounded=0;" edge="1" parent="1">
            <mxGeometry relative="1" as="geometry">
              <mxPoint x="-1" as="offset" />
              <Array as="points" />
              <mxPoint x="2600" y="2296" as="sourcePoint" />
              <mxPoint x="2861" y="2296" as="targetPoint" />
            </mxGeometry>
          </mxCell>
        </UserObject>
        <UserObject label="" tags="Соединительная_линия" id="srDaBskKyKmV22WjLrVP-54">
          <mxCell style="vsdxID=65;edgeStyle=none;startArrow=none;endArrow=none;startSize=9;endSize=9;spacingTop=0;spacingBottom=0;spacingLeft=0;spacingRight=0;verticalAlign=middle;html=1;labelBackgroundColor=#ffffff;rounded=0;" edge="1" parent="1">
            <mxGeometry relative="1" as="geometry">
              <mxPoint x="-1" as="offset" />
              <Array as="points" />
              <mxPoint x="2600" y="2316" as="sourcePoint" />
              <mxPoint x="2861" y="2316" as="targetPoint" />
            </mxGeometry>
          </mxCell>
        </UserObject>
        <UserObject label="" tags="Соединительная_линия" id="srDaBskKyKmV22WjLrVP-55">
          <mxCell style="vsdxID=66;edgeStyle=none;startArrow=none;endArrow=none;startSize=9;endSize=9;spacingTop=0;spacingBottom=0;spacingLeft=0;spacingRight=0;verticalAlign=middle;html=1;labelBackgroundColor=#ffffff;rounded=0;" edge="1" parent="1">
            <mxGeometry relative="1" as="geometry">
              <mxPoint x="-1" as="offset" />
              <Array as="points" />
              <mxPoint x="2600" y="2336" as="sourcePoint" />
              <mxPoint x="2861" y="2336" as="targetPoint" />
            </mxGeometry>
          </mxCell>
        </UserObject>
        <UserObject label="&lt;div style=&quot;font-size: 1px&quot;&gt;&lt;font style=&quot;font-size: 16.93px; font-family: Arial; color: rgb(0, 0, 0); direction: ltr; letter-spacing: 0px; line-height: 120%; opacity: 1;&quot;&gt;Лист 2&lt;br&gt;&lt;/font&gt;&lt;/div&gt;" tags="Background" id="srDaBskKyKmV22WjLrVP-72">
          <mxCell style="verticalAlign=middle;align=center;overflow=width;vsdxID=88;fillColor=none;gradientColor=none;shape=stencil(nZBLDoAgDERP0z3SIyjew0SURgSD+Lu9kMZoXLhwN9O+tukAlrNpJg1SzDH4QW/URgNYgZTkjA4UkwJUgGXng+6DX1zLfmoymdXo17xh5zmRJ6Q42BWCfc2oJfdAr+Yv+AP9Cb7OJ3H/2JG1HNGz/84klThPVCc=);strokeColor=none;points=[];labelBackgroundColor=none;rounded=0;html=1;whiteSpace=wrap;" vertex="1" parent="1">
            <mxGeometry x="3162" y="2277" width="80" height="19" as="geometry" />
          </mxCell>
        </UserObject>
        <UserObject label="&lt;div style=&quot;font-size: 1px&quot;&gt;&lt;font style=&quot;font-size:16.93px;font-family:Arial;color:#000000;direction:ltr;letter-spacing:0px;line-height:120%;opacity:1&quot;&gt;Листов 2&lt;br/&gt;&lt;/font&gt;&lt;/div&gt;" tags="Background" id="srDaBskKyKmV22WjLrVP-73">
          <mxCell style="verticalAlign=middle;align=center;overflow=width;vsdxID=90;fillColor=none;gradientColor=none;shape=stencil(nZBLDoAgDERP0z3SIyjew0SURgSD+Lu9kMZoXLhwN9O+tukAlrNpJg1SzDH4QW/URgNYgZTkjA4UkwJUgGXng+6DX1zLfmoymdXo17xh5zmRJ6Q42BWCfc2oJfdAr+Yv+AP9Cb7OJ3H/2JG1HNGz/84klThPVCc=);strokeColor=none;points=[];labelBackgroundColor=none;rounded=0;html=1;whiteSpace=wrap;" vertex="1" parent="1">
            <mxGeometry x="3242" y="2277" width="101" height="20" as="geometry" />
          </mxCell>
        </UserObject>
        <UserObject label="" tags="Соединительная_линия" id="srDaBskKyKmV22WjLrVP-74">
          <mxCell style="vsdxID=28;edgeStyle=none;startArrow=none;endArrow=none;startSize=9;endSize=9;strokeWidth=3;spacingTop=0;spacingBottom=0;spacingLeft=0;spacingRight=0;verticalAlign=middle;html=1;labelBackgroundColor=#ffffff;rounded=0;" edge="1" parent="1">
            <mxGeometry relative="1" as="geometry">
              <mxPoint x="10" y="-1" as="offset" />
              <Array as="points" />
              <mxPoint x="3242" y="2276" as="sourcePoint" />
              <mxPoint x="3242" y="2295" as="targetPoint" />
            </mxGeometry>
          </mxCell>
        </UserObject>
        <mxCell id="srDaBskKyKmV22WjLrVP-283" value="MainWindow" style="swimlane;fontStyle=1;align=center;verticalAlign=top;childLayout=stackLayout;horizontal=1;startSize=26;horizontalStack=0;resizeParent=1;resizeParentMax=0;resizeLast=0;collapsible=1;marginBottom=0;whiteSpace=wrap;html=1;strokeWidth=5;fontSize=40;swimlaneLine=0;" vertex="1" parent="1">
          <mxGeometry x="672" y="608" width="800" height="1262" as="geometry">
            <mxRectangle x="220" y="510" width="110" height="30" as="alternateBounds" />
          </mxGeometry>
        </mxCell>
        <mxCell id="srDaBskKyKmV22WjLrVP-284" value="&lt;div&gt;&lt;br&gt;&lt;/div&gt;&lt;div&gt;+ ui: Ui::MainWindow *&lt;/div&gt;" style="text;strokeColor=none;fillColor=none;align=left;verticalAlign=top;spacingLeft=4;spacingRight=4;overflow=hidden;rotatable=0;points=[[0,0.5],[1,0.5]];portConstraint=eastwest;whiteSpace=wrap;html=1;strokeWidth=5;swimlaneLine=1;fontSize=40;" vertex="1" parent="srDaBskKyKmV22WjLrVP-283">
          <mxGeometry y="26" width="800" height="86" as="geometry" />
        </mxCell>
        <mxCell id="srDaBskKyKmV22WjLrVP-285" value="+ settings: Settings *" style="text;strokeColor=none;fillColor=none;align=left;verticalAlign=top;spacingLeft=4;spacingRight=4;overflow=hidden;rotatable=0;points=[[0,0.5],[1,0.5]];portConstraint=eastwest;whiteSpace=wrap;html=1;strokeWidth=5;swimlaneLine=1;fontSize=40;" vertex="1" parent="srDaBskKyKmV22WjLrVP-283">
          <mxGeometry y="112" width="800" height="50" as="geometry" />
        </mxCell>
        <mxCell id="srDaBskKyKmV22WjLrVP-286" value="+ localGame: Game *" style="text;strokeColor=none;fillColor=none;align=left;verticalAlign=top;spacingLeft=4;spacingRight=4;overflow=hidden;rotatable=0;points=[[0,0.5],[1,0.5]];portConstraint=eastwest;whiteSpace=wrap;html=1;strokeWidth=5;swimlaneLine=1;fontSize=40;" vertex="1" parent="srDaBskKyKmV22WjLrVP-283">
          <mxGeometry y="162" width="800" height="50" as="geometry" />
        </mxCell>
        <mxCell id="srDaBskKyKmV22WjLrVP-287" value="+ DefaultWords: vector&amp;lt;pair&amp;lt;string, string&amp;gt;" style="text;strokeColor=none;fillColor=none;align=left;verticalAlign=top;spacingLeft=4;spacingRight=4;overflow=hidden;rotatable=0;points=[[0,0.5],[1,0.5]];portConstraint=eastwest;whiteSpace=wrap;html=1;strokeWidth=5;swimlaneLine=1;fontSize=40;" vertex="1" parent="srDaBskKyKmV22WjLrVP-283">
          <mxGeometry y="212" width="800" height="50" as="geometry" />
        </mxCell>
        <mxCell id="srDaBskKyKmV22WjLrVP-288" value="" style="line;strokeWidth=5;fillColor=none;align=left;verticalAlign=middle;spacingTop=-1;spacingLeft=3;spacingRight=3;rotatable=0;labelPosition=right;points=[];portConstraint=eastwest;strokeColor=inherit;swimlaneLine=1;fontSize=40;" vertex="1" parent="srDaBskKyKmV22WjLrVP-283">
          <mxGeometry y="262" width="800" height="50" as="geometry" />
        </mxCell>
        <mxCell id="srDaBskKyKmV22WjLrVP-289" value=" + onEnterFullWord(): void" style="text;whiteSpace=wrap;strokeWidth=5;swimlaneLine=1;fontSize=40;" vertex="1" parent="srDaBskKyKmV22WjLrVP-283">
          <mxGeometry y="312" width="800" height="50" as="geometry" />
        </mxCell>
        <mxCell id="srDaBskKyKmV22WjLrVP-290" value="     + on_GetPath_clicked(): void&lt;div&gt;&lt;br&gt;&lt;/div&gt;" style="text;strokeColor=none;fillColor=none;align=left;verticalAlign=top;spacingLeft=4;spacingRight=4;overflow=hidden;rotatable=0;points=[[0,0.5],[1,0.5]];portConstraint=eastwest;whiteSpace=wrap;html=1;strokeWidth=5;swimlaneLine=1;fontSize=40;" vertex="1" parent="srDaBskKyKmV22WjLrVP-283">
          <mxGeometry y="362" width="800" height="50" as="geometry" />
        </mxCell>
        <mxCell id="srDaBskKyKmV22WjLrVP-291" value=" + on_SetWord_clicked(): void" style="text;whiteSpace=wrap;strokeWidth=5;swimlaneLine=1;fontSize=40;" vertex="1" parent="srDaBskKyKmV22WjLrVP-283">
          <mxGeometry y="412" width="800" height="50" as="geometry" />
        </mxCell>
        <mxCell id="srDaBskKyKmV22WjLrVP-292" value="     + on_SetLetter_clicked(): void&lt;div&gt;&lt;br&gt;&lt;/div&gt;" style="text;strokeColor=none;fillColor=none;align=left;verticalAlign=top;spacingLeft=4;spacingRight=4;overflow=hidden;rotatable=0;points=[[0,0.5],[1,0.5]];portConstraint=eastwest;whiteSpace=wrap;html=1;strokeWidth=5;swimlaneLine=1;fontSize=40;" vertex="1" parent="srDaBskKyKmV22WjLrVP-283">
          <mxGeometry y="462" width="800" height="50" as="geometry" />
        </mxCell>
        <mxCell id="srDaBskKyKmV22WjLrVP-293" value="&lt;div&gt;     + on_ExitButton_clicked(): void &lt;br&gt;&lt;/div&gt;" style="text;strokeColor=none;fillColor=none;align=left;verticalAlign=top;spacingLeft=4;spacingRight=4;overflow=hidden;rotatable=0;points=[[0,0.5],[1,0.5]];portConstraint=eastwest;whiteSpace=wrap;html=1;strokeWidth=5;swimlaneLine=1;fontSize=40;" vertex="1" parent="srDaBskKyKmV22WjLrVP-283">
          <mxGeometry y="512" width="800" height="50" as="geometry" />
        </mxCell>
        <mxCell id="srDaBskKyKmV22WjLrVP-294" value="&lt;div&gt;     + on_PlayButton_clicked(): void &lt;br&gt;&lt;/div&gt;" style="text;strokeColor=none;fillColor=none;align=left;verticalAlign=top;spacingLeft=4;spacingRight=4;overflow=hidden;rotatable=0;points=[[0,0.5],[1,0.5]];portConstraint=eastwest;whiteSpace=wrap;html=1;strokeWidth=5;swimlaneLine=1;fontSize=40;" vertex="1" parent="srDaBskKyKmV22WjLrVP-283">
          <mxGeometry y="562" width="800" height="50" as="geometry" />
        </mxCell>
        <mxCell id="srDaBskKyKmV22WjLrVP-295" value=" + on_SaveButton_clicked(): void" style="text;whiteSpace=wrap;strokeWidth=5;swimlaneLine=1;fontSize=40;" vertex="1" parent="srDaBskKyKmV22WjLrVP-283">
          <mxGeometry y="612" width="800" height="50" as="geometry" />
        </mxCell>
        <mxCell id="srDaBskKyKmV22WjLrVP-298" value="     + on_HumanComp_clicked(): void&lt;div&gt;&lt;br&gt;&lt;/div&gt;" style="text;strokeColor=none;fillColor=none;align=left;verticalAlign=top;spacingLeft=4;spacingRight=4;overflow=hidden;rotatable=0;points=[[0,0.5],[1,0.5]];portConstraint=eastwest;whiteSpace=wrap;html=1;strokeWidth=5;swimlaneLine=1;fontSize=40;" vertex="1" parent="srDaBskKyKmV22WjLrVP-283">
          <mxGeometry y="662" width="800" height="50" as="geometry" />
        </mxCell>
        <mxCell id="srDaBskKyKmV22WjLrVP-299" value="     + on_CompHuman_clicked(): void&lt;div&gt;&lt;br&gt;&lt;/div&gt;" style="text;strokeColor=none;fillColor=none;align=left;verticalAlign=top;spacingLeft=4;spacingRight=4;overflow=hidden;rotatable=0;points=[[0,0.5],[1,0.5]];portConstraint=eastwest;whiteSpace=wrap;html=1;strokeWidth=5;swimlaneLine=1;fontSize=40;" vertex="1" parent="srDaBskKyKmV22WjLrVP-283">
          <mxGeometry y="712" width="800" height="50" as="geometry" />
        </mxCell>
        <mxCell id="srDaBskKyKmV22WjLrVP-300" value="     + on_SaveSettings_clicked(): void&lt;div&gt;&lt;br&gt;&lt;/div&gt;" style="text;strokeColor=none;fillColor=none;align=left;verticalAlign=top;spacingLeft=4;spacingRight=4;overflow=hidden;rotatable=0;points=[[0,0.5],[1,0.5]];portConstraint=eastwest;whiteSpace=wrap;html=1;strokeWidth=5;swimlaneLine=1;fontSize=40;" vertex="1" parent="srDaBskKyKmV22WjLrVP-283">
          <mxGeometry y="762" width="800" height="50" as="geometry" />
        </mxCell>
        <mxCell id="srDaBskKyKmV22WjLrVP-301" value="     + on_textEdit_textChanged(): void&lt;div&gt;&lt;br&gt;&lt;/div&gt;" style="text;strokeColor=none;fillColor=none;align=left;verticalAlign=top;spacingLeft=4;spacingRight=4;overflow=hidden;rotatable=0;points=[[0,0.5],[1,0.5]];portConstraint=eastwest;whiteSpace=wrap;html=1;strokeWidth=5;swimlaneLine=1;fontSize=40;" vertex="1" parent="srDaBskKyKmV22WjLrVP-283">
          <mxGeometry y="812" width="800" height="50" as="geometry" />
        </mxCell>
        <mxCell id="srDaBskKyKmV22WjLrVP-296" value=" + on_Player1_textChanged(): void" style="text;whiteSpace=wrap;strokeWidth=5;swimlaneLine=1;fontSize=40;" vertex="1" parent="srDaBskKyKmV22WjLrVP-283">
          <mxGeometry y="862" width="800" height="50" as="geometry" />
        </mxCell>
        <mxCell id="srDaBskKyKmV22WjLrVP-297" value=" + on_Player2_textChanged(): void" style="text;whiteSpace=wrap;strokeWidth=5;swimlaneLine=1;fontSize=40;" vertex="1" parent="srDaBskKyKmV22WjLrVP-283">
          <mxGeometry y="912" width="800" height="50" as="geometry" />
        </mxCell>
        <mxCell id="srDaBskKyKmV22WjLrVP-302" value="     + on_EnterFullWord_clicked(): void&lt;div&gt;&lt;br&gt;&lt;/div&gt;" style="text;strokeColor=none;fillColor=none;align=left;verticalAlign=top;spacingLeft=4;spacingRight=4;overflow=hidden;rotatable=0;points=[[0,0.5],[1,0.5]];portConstraint=eastwest;whiteSpace=wrap;html=1;strokeWidth=5;swimlaneLine=1;fontSize=40;" vertex="1" parent="srDaBskKyKmV22WjLrVP-283">
          <mxGeometry y="962" width="800" height="50" as="geometry" />
        </mxCell>
        <mxCell id="srDaBskKyKmV22WjLrVP-303" value="     + on_HumanHuman_clicked(): void&lt;div&gt;&lt;br&gt;&lt;/div&gt;" style="text;strokeColor=none;fillColor=none;align=left;verticalAlign=top;spacingLeft=4;spacingRight=4;overflow=hidden;rotatable=0;points=[[0,0.5],[1,0.5]];portConstraint=eastwest;whiteSpace=wrap;html=1;strokeWidth=5;swimlaneLine=1;fontSize=40;" vertex="1" parent="srDaBskKyKmV22WjLrVP-283">
          <mxGeometry y="1012" width="800" height="50" as="geometry" />
        </mxCell>
        <mxCell id="srDaBskKyKmV22WjLrVP-304" value="&lt;div&gt;     + on_SettingsButton_clicked(): void &lt;br&gt;&lt;/div&gt;&lt;div&gt;&lt;br&gt;&lt;/div&gt;" style="text;strokeColor=none;fillColor=none;align=left;verticalAlign=top;spacingLeft=4;spacingRight=4;overflow=hidden;rotatable=0;points=[[0,0.5],[1,0.5]];portConstraint=eastwest;whiteSpace=wrap;html=1;strokeWidth=5;swimlaneLine=1;fontSize=40;" vertex="1" parent="srDaBskKyKmV22WjLrVP-283">
          <mxGeometry y="1062" width="800" height="50" as="geometry" />
        </mxCell>
        <mxCell id="srDaBskKyKmV22WjLrVP-307" value="     + on_textEdit_2_textChanged(): void&lt;div&gt;&lt;br&gt;&lt;/div&gt;" style="text;strokeColor=none;fillColor=none;align=left;verticalAlign=top;spacingLeft=4;spacingRight=4;overflow=hidden;rotatable=0;points=[[0,0.5],[1,0.5]];portConstraint=eastwest;whiteSpace=wrap;html=1;strokeWidth=5;swimlaneLine=1;fontSize=40;" vertex="1" parent="srDaBskKyKmV22WjLrVP-283">
          <mxGeometry y="1112" width="800" height="50" as="geometry" />
        </mxCell>
        <mxCell id="srDaBskKyKmV22WjLrVP-306" value="+ on_PlayersEdit_textChanged(): void" style="text;whiteSpace=wrap;strokeWidth=5;swimlaneLine=1;fontSize=40;" vertex="1" parent="srDaBskKyKmV22WjLrVP-283">
          <mxGeometry y="1162" width="800" height="50" as="geometry" />
        </mxCell>
        <mxCell id="srDaBskKyKmV22WjLrVP-305" value="     + on_ReturnToMainMenu_clicked(): void&lt;div&gt;&lt;br&gt;&lt;/div&gt;" style="text;strokeColor=none;fillColor=none;align=left;verticalAlign=top;spacingLeft=4;spacingRight=4;overflow=hidden;rotatable=0;points=[[0,0.5],[1,0.5]];portConstraint=eastwest;whiteSpace=wrap;html=1;strokeWidth=5;swimlaneLine=1;fontSize=40;" vertex="1" parent="srDaBskKyKmV22WjLrVP-283">
          <mxGeometry y="1212" width="800" height="50" as="geometry" />
        </mxCell>
        <mxCell id="srDaBskKyKmV22WjLrVP-391" value="" style="endArrow=none;html=1;rounded=0;strokeWidth=5;entryX=-0.001;entryY=0.341;entryDx=0;entryDy=0;entryPerimeter=0;exitX=1;exitY=0.341;exitDx=0;exitDy=0;exitPerimeter=0;" edge="1" parent="srDaBskKyKmV22WjLrVP-283">
          <mxGeometry width="50" height="50" relative="1" as="geometry">
            <mxPoint x="800" y="62.32600000000002" as="sourcePoint" />
            <mxPoint x="-0.8000000000001819" y="62.32600000000002" as="targetPoint" />
          </mxGeometry>
        </mxCell>
        <mxCell id="srDaBskKyKmV22WjLrVP-308" value="" style="endArrow=open;endFill=1;endSize=12;html=1;rounded=0;entryX=-0.014;entryY=0.797;entryDx=0;entryDy=0;entryPerimeter=0;exitX=1;exitY=0.5;exitDx=0;exitDy=0;strokeWidth=5;fontSize=17;swimlaneLine=1;" edge="1" parent="1" source="srDaBskKyKmV22WjLrVP-285" target="srDaBskKyKmV22WjLrVP-312">
          <mxGeometry width="160" relative="1" as="geometry">
            <mxPoint x="1560" y="710" as="sourcePoint" />
            <mxPoint x="1715" y="710" as="targetPoint" />
          </mxGeometry>
        </mxCell>
        <mxCell id="srDaBskKyKmV22WjLrVP-309" value="" style="endArrow=open;endFill=1;endSize=12;html=1;rounded=0;entryX=0;entryY=0.5;entryDx=0;entryDy=0;exitX=1;exitY=0.5;exitDx=0;exitDy=0;strokeWidth=5;fontSize=17;swimlaneLine=1;" edge="1" parent="1" source="srDaBskKyKmV22WjLrVP-286" target="srDaBskKyKmV22WjLrVP-326">
          <mxGeometry width="160" relative="1" as="geometry">
            <mxPoint x="1560" y="850" as="sourcePoint" />
            <mxPoint x="1705" y="850" as="targetPoint" />
          </mxGeometry>
        </mxCell>
        <mxCell id="srDaBskKyKmV22WjLrVP-310" value="Settings" style="swimlane;fontStyle=1;align=center;verticalAlign=top;childLayout=stackLayout;horizontal=1;startSize=26;horizontalStack=0;resizeParent=1;resizeParentMax=0;resizeLast=0;collapsible=1;marginBottom=0;whiteSpace=wrap;html=1;strokeWidth=5;fontSize=40;swimlaneLine=0;" vertex="1" parent="1">
          <mxGeometry x="2000" y="288" width="880" height="478" as="geometry" />
        </mxCell>
        <mxCell id="srDaBskKyKmV22WjLrVP-389" value="" style="endArrow=none;html=1;rounded=0;strokeWidth=5;entryX=0.004;entryY=0.344;entryDx=0;entryDy=0;entryPerimeter=0;fontSize=40;" edge="1" parent="srDaBskKyKmV22WjLrVP-310">
          <mxGeometry width="50" height="50" relative="1" as="geometry">
            <mxPoint x="878.0047441217148" y="66.29999999999995" as="sourcePoint" />
            <mxPoint x="2" y="64" as="targetPoint" />
          </mxGeometry>
        </mxCell>
        <mxCell id="srDaBskKyKmV22WjLrVP-311" value="&lt;div&gt;&lt;br&gt;&lt;/div&gt;&lt;div&gt;+ jsonPath: string&lt;/div&gt;" style="text;strokeColor=none;fillColor=none;align=left;verticalAlign=top;spacingLeft=4;spacingRight=4;overflow=hidden;rotatable=0;points=[[0,0.5],[1,0.5]];portConstraint=eastwest;whiteSpace=wrap;html=1;strokeWidth=5;swimlaneLine=1;fontSize=40;" vertex="1" parent="srDaBskKyKmV22WjLrVP-310">
          <mxGeometry y="26" width="880" height="102" as="geometry" />
        </mxCell>
        <mxCell id="srDaBskKyKmV22WjLrVP-312" value="+ difficulty: string" style="text;strokeColor=none;fillColor=none;align=left;verticalAlign=top;spacingLeft=4;spacingRight=4;overflow=hidden;rotatable=0;points=[[0,0.5],[1,0.5]];portConstraint=eastwest;whiteSpace=wrap;html=1;strokeWidth=5;swimlaneLine=1;fontSize=40;" vertex="1" parent="srDaBskKyKmV22WjLrVP-310">
          <mxGeometry y="128" width="880" height="50" as="geometry" />
        </mxCell>
        <mxCell id="srDaBskKyKmV22WjLrVP-313" value="" style="line;strokeWidth=5;fillColor=none;align=left;verticalAlign=middle;spacingTop=-1;spacingLeft=3;spacingRight=3;rotatable=0;labelPosition=right;points=[];portConstraint=eastwest;strokeColor=inherit;swimlaneLine=1;fontSize=40;" vertex="1" parent="srDaBskKyKmV22WjLrVP-310">
          <mxGeometry y="178" width="880" height="50" as="geometry" />
        </mxCell>
        <mxCell id="srDaBskKyKmV22WjLrVP-314" value="+ SetAll(path: string, difficulty: string): void&lt;br&gt;&lt;div&gt;&lt;br&gt;&lt;/div&gt;" style="text;strokeColor=none;fillColor=none;align=left;verticalAlign=top;spacingLeft=4;spacingRight=4;overflow=hidden;rotatable=0;points=[[0,0.5],[1,0.5]];portConstraint=eastwest;whiteSpace=wrap;html=1;strokeWidth=5;swimlaneLine=1;fontSize=40;" vertex="1" parent="srDaBskKyKmV22WjLrVP-310">
          <mxGeometry y="228" width="880" height="50" as="geometry" />
        </mxCell>
        <mxCell id="srDaBskKyKmV22WjLrVP-315" value="+ SetDifficulty(difficulty: string): void&lt;br&gt;&lt;div&gt;&lt;br&gt;&lt;/div&gt;" style="text;strokeColor=none;fillColor=none;align=left;verticalAlign=top;spacingLeft=4;spacingRight=4;overflow=hidden;rotatable=0;points=[[0,0.5],[1,0.5]];portConstraint=eastwest;whiteSpace=wrap;html=1;strokeWidth=5;swimlaneLine=1;fontSize=40;" vertex="1" parent="srDaBskKyKmV22WjLrVP-310">
          <mxGeometry y="278" width="880" height="50" as="geometry" />
        </mxCell>
        <mxCell id="srDaBskKyKmV22WjLrVP-316" value="+ SetPath(path: string): void&lt;br&gt;&lt;div&gt;&lt;br&gt;&lt;/div&gt;" style="text;strokeColor=none;fillColor=none;align=left;verticalAlign=top;spacingLeft=4;spacingRight=4;overflow=hidden;rotatable=0;points=[[0,0.5],[1,0.5]];portConstraint=eastwest;whiteSpace=wrap;html=1;strokeWidth=5;swimlaneLine=1;fontSize=40;" vertex="1" parent="srDaBskKyKmV22WjLrVP-310">
          <mxGeometry y="328" width="880" height="50" as="geometry" />
        </mxCell>
        <mxCell id="srDaBskKyKmV22WjLrVP-317" value="+ GetDifficulty(): string&lt;br&gt;&lt;div&gt;&lt;br&gt;&lt;/div&gt;" style="text;strokeColor=none;fillColor=none;align=left;verticalAlign=top;spacingLeft=4;spacingRight=4;overflow=hidden;rotatable=0;points=[[0,0.5],[1,0.5]];portConstraint=eastwest;whiteSpace=wrap;html=1;strokeWidth=5;swimlaneLine=1;fontSize=40;" vertex="1" parent="srDaBskKyKmV22WjLrVP-310">
          <mxGeometry y="378" width="880" height="50" as="geometry" />
        </mxCell>
        <mxCell id="srDaBskKyKmV22WjLrVP-318" value="+ GetPath(): string&lt;br&gt;&lt;div&gt;&lt;br&gt;&lt;/div&gt;" style="text;strokeColor=none;fillColor=none;align=left;verticalAlign=top;spacingLeft=4;spacingRight=4;overflow=hidden;rotatable=0;points=[[0,0.5],[1,0.5]];portConstraint=eastwest;whiteSpace=wrap;html=1;strokeWidth=5;swimlaneLine=1;fontSize=40;" vertex="1" parent="srDaBskKyKmV22WjLrVP-310">
          <mxGeometry y="428" width="880" height="50" as="geometry" />
        </mxCell>
        <mxCell id="srDaBskKyKmV22WjLrVP-319" value="&lt;div style=&quot;padding-top: 0px;&quot;&gt;Game&lt;/div&gt;&lt;div&gt;&lt;br&gt;&lt;/div&gt;" style="swimlane;fontStyle=1;align=center;verticalAlign=top;childLayout=stackLayout;horizontal=1;startSize=26;horizontalStack=0;resizeParent=1;resizeParentMax=0;resizeLast=0;collapsible=1;marginBottom=0;whiteSpace=wrap;html=1;strokeWidth=5;fontSize=40;swimlaneLine=0;glass=0;rounded=0;" vertex="1" parent="1">
          <mxGeometry x="2000" y="912" width="880" height="983" as="geometry" />
        </mxCell>
        <mxCell id="srDaBskKyKmV22WjLrVP-320" value="&lt;div&gt;&lt;br&gt;&lt;/div&gt;&lt;div&gt;+ ui: Ui::MainWindow *&lt;/div&gt;" style="text;strokeColor=none;fillColor=none;align=left;verticalAlign=top;spacingLeft=4;spacingRight=4;overflow=hidden;rotatable=1;points=[[0,0.5],[1,0.5]];portConstraint=eastwest;whiteSpace=wrap;html=1;strokeWidth=5;swimlaneLine=1;fontSize=40;movable=1;resizable=1;deletable=1;editable=1;locked=0;connectable=1;" vertex="1" parent="srDaBskKyKmV22WjLrVP-319">
          <mxGeometry y="26" width="880" height="101" as="geometry" />
        </mxCell>
        <mxCell id="srDaBskKyKmV22WjLrVP-321" value="+&amp;nbsp;wordToGuess: QString" style="text;strokeColor=none;fillColor=none;align=left;verticalAlign=top;spacingLeft=4;spacingRight=4;overflow=hidden;rotatable=0;points=[[0,0.5],[1,0.5]];portConstraint=eastwest;whiteSpace=wrap;html=1;strokeWidth=5;swimlaneLine=1;fontSize=40;" vertex="1" parent="srDaBskKyKmV22WjLrVP-319">
          <mxGeometry y="127" width="880" height="50" as="geometry" />
        </mxCell>
        <mxCell id="srDaBskKyKmV22WjLrVP-322" value="+&amp;nbsp;guessed: QString" style="text;strokeColor=none;fillColor=none;align=left;verticalAlign=top;spacingLeft=4;spacingRight=4;overflow=hidden;rotatable=0;points=[[0,0.5],[1,0.5]];portConstraint=eastwest;whiteSpace=wrap;html=1;strokeWidth=5;swimlaneLine=1;fontSize=40;" vertex="1" parent="srDaBskKyKmV22WjLrVP-319">
          <mxGeometry y="177" width="880" height="50" as="geometry" />
        </mxCell>
        <mxCell id="srDaBskKyKmV22WjLrVP-323" value="+&amp;nbsp;attemptsLeft: int" style="text;strokeColor=none;fillColor=none;align=left;verticalAlign=top;spacingLeft=4;spacingRight=4;overflow=hidden;rotatable=0;points=[[0,0.5],[1,0.5]];portConstraint=eastwest;whiteSpace=wrap;html=1;strokeWidth=5;swimlaneLine=1;fontSize=40;" vertex="1" parent="srDaBskKyKmV22WjLrVP-319">
          <mxGeometry y="227" width="880" height="50" as="geometry" />
        </mxCell>
        <mxCell id="srDaBskKyKmV22WjLrVP-324" value="+&amp;nbsp;maxAttempts: int" style="text;strokeColor=none;fillColor=none;align=left;verticalAlign=top;spacingLeft=4;spacingRight=4;overflow=hidden;rotatable=0;points=[[0,0.5],[1,0.5]];portConstraint=eastwest;whiteSpace=wrap;html=1;strokeWidth=5;swimlaneLine=1;fontSize=40;" vertex="1" parent="srDaBskKyKmV22WjLrVP-319">
          <mxGeometry y="277" width="880" height="50" as="geometry" />
        </mxCell>
        <mxCell id="srDaBskKyKmV22WjLrVP-325" value="+&amp;nbsp;attemptsChanged: bool" style="text;strokeColor=none;fillColor=none;align=left;verticalAlign=top;spacingLeft=4;spacingRight=4;overflow=hidden;rotatable=0;points=[[0,0.5],[1,0.5]];portConstraint=eastwest;whiteSpace=wrap;html=1;strokeWidth=5;swimlaneLine=1;fontSize=40;" vertex="1" parent="srDaBskKyKmV22WjLrVP-319">
          <mxGeometry y="327" width="880" height="50" as="geometry" />
        </mxCell>
        <mxCell id="srDaBskKyKmV22WjLrVP-326" value="+ usedLetters: unordered_map&amp;lt;QChar, bool&amp;gt;" style="text;strokeColor=none;fillColor=none;align=left;verticalAlign=top;spacingLeft=4;spacingRight=4;overflow=hidden;rotatable=0;points=[[0,0.5],[1,0.5]];portConstraint=eastwest;whiteSpace=wrap;html=1;strokeWidth=5;swimlaneLine=1;fontSize=40;" vertex="1" parent="srDaBskKyKmV22WjLrVP-319">
          <mxGeometry y="377" width="880" height="50" as="geometry" />
        </mxCell>
        <mxCell id="srDaBskKyKmV22WjLrVP-327" value="" style="line;strokeWidth=5;fillColor=none;align=left;verticalAlign=middle;spacingTop=-1;spacingLeft=3;spacingRight=3;rotatable=0;labelPosition=right;points=[];portConstraint=eastwest;strokeColor=inherit;swimlaneLine=1;fontSize=40;" vertex="1" parent="srDaBskKyKmV22WjLrVP-319">
          <mxGeometry y="427" width="880" height="50" as="geometry" />
        </mxCell>
        <mxCell id="srDaBskKyKmV22WjLrVP-333" value="+ Check(textbox: QTextEdit *, Animate: QStackedWidget *, Label: QLabel *): void" style="text;strokeColor=none;fillColor=none;align=left;verticalAlign=top;spacingLeft=4;spacingRight=4;overflow=hidden;rotatable=0;points=[[0,0.5],[1,0.5]];portConstraint=eastwest;whiteSpace=wrap;html=1;strokeWidth=5;swimlaneLine=1;fontSize=40;" vertex="1" parent="srDaBskKyKmV22WjLrVP-319">
          <mxGeometry y="477" width="880" height="105" as="geometry" />
        </mxCell>
        <mxCell id="srDaBskKyKmV22WjLrVP-334" value="+ DisplayGameState(label: QTextEdit *, Animate: QStackedWidget *,&amp;nbsp; guessed: QString, attemptsLeft: int, maxAttempts: int): void" style="text;strokeColor=none;fillColor=none;align=left;verticalAlign=top;spacingLeft=4;spacingRight=4;overflow=hidden;rotatable=0;points=[[0,0.5],[1,0.5]];portConstraint=eastwest;whiteSpace=wrap;html=1;strokeWidth=5;swimlaneLine=1;fontSize=40;" vertex="1" parent="srDaBskKyKmV22WjLrVP-319">
          <mxGeometry y="582" width="880" height="151" as="geometry" />
        </mxCell>
        <mxCell id="srDaBskKyKmV22WjLrVP-328" value="+ IsWordGuessed(): bool" style="text;strokeColor=none;fillColor=none;align=left;verticalAlign=top;spacingLeft=4;spacingRight=4;overflow=hidden;rotatable=0;points=[[0,0.5],[1,0.5]];portConstraint=eastwest;whiteSpace=wrap;html=1;strokeWidth=5;swimlaneLine=1;fontSize=40;" vertex="1" parent="srDaBskKyKmV22WjLrVP-319">
          <mxGeometry y="733" width="880" height="50" as="geometry" />
        </mxCell>
        <mxCell id="srDaBskKyKmV22WjLrVP-329" value="+ FullWord(text: QString): void" style="text;strokeColor=none;fillColor=none;align=left;verticalAlign=top;spacingLeft=4;spacingRight=4;overflow=hidden;rotatable=0;points=[[0,0.5],[1,0.5]];portConstraint=eastwest;whiteSpace=wrap;html=1;strokeWidth=5;swimlaneLine=1;fontSize=40;" vertex="1" parent="srDaBskKyKmV22WjLrVP-319">
          <mxGeometry y="783" width="880" height="50" as="geometry" />
        </mxCell>
        <mxCell id="srDaBskKyKmV22WjLrVP-330" value="+ IsLetterInWord(letter: QChar): bool" style="text;strokeColor=none;fillColor=none;align=left;verticalAlign=top;spacingLeft=4;spacingRight=4;overflow=hidden;rotatable=0;points=[[0,0.5],[1,0.5]];portConstraint=eastwest;whiteSpace=wrap;html=1;strokeWidth=5;swimlaneLine=1;fontSize=40;" vertex="1" parent="srDaBskKyKmV22WjLrVP-319">
          <mxGeometry y="833" width="880" height="50" as="geometry" />
        </mxCell>
        <mxCell id="srDaBskKyKmV22WjLrVP-331" value="+ UpdateGuessedWord(letter: QChar): bool" style="text;strokeColor=none;fillColor=none;align=left;verticalAlign=top;spacingLeft=4;spacingRight=4;overflow=hidden;rotatable=0;points=[[0,0.5],[1,0.5]];portConstraint=eastwest;whiteSpace=wrap;html=1;strokeWidth=5;swimlaneLine=1;fontSize=40;" vertex="1" parent="srDaBskKyKmV22WjLrVP-319">
          <mxGeometry y="883" width="880" height="50" as="geometry" />
        </mxCell>
        <mxCell id="srDaBskKyKmV22WjLrVP-332" value="+ EndGame(Animate: QStackedWidget *): void" style="text;strokeColor=none;fillColor=none;align=left;verticalAlign=top;spacingLeft=4;spacingRight=4;overflow=hidden;rotatable=0;points=[[0,0.5],[1,0.5]];portConstraint=eastwest;whiteSpace=wrap;html=1;strokeWidth=5;swimlaneLine=1;fontSize=40;" vertex="1" parent="srDaBskKyKmV22WjLrVP-319">
          <mxGeometry y="933" width="880" height="50" as="geometry" />
        </mxCell>
        <mxCell id="srDaBskKyKmV22WjLrVP-388" value="" style="endArrow=none;html=1;rounded=0;strokeWidth=5;entryX=0.004;entryY=0.344;entryDx=0;entryDy=0;entryPerimeter=0;fontSize=40;" edge="1" parent="1" target="srDaBskKyKmV22WjLrVP-320">
          <mxGeometry width="50" height="50" relative="1" as="geometry">
            <mxPoint x="2880.004744121715" y="975.3" as="sourcePoint" />
            <mxPoint x="3013.5699999999997" y="928" as="targetPoint" />
          </mxGeometry>
        </mxCell>
      </root>
    </mxGraphModel>
  </diagram>
</mxfile>
